<?xml version="1.0" encoding="UTF-8"?>
<svg width="14px" height="14px" viewBox="0 0 14 14" version="1.1" xmlns="http://www.w3.org/2000/svg" xmlns:xlink="http://www.w3.org/1999/xlink">
    <!-- Generator: Sketch 52.3 (67297) - http://www.bohemiancoding.com/sketch -->
    <title>Icon / Video</title>
    <desc>Created with Sketch.</desc>
    <g id="Icon-/-Video" stroke="none" stroke-width="1" fill="none" fill-rule="evenodd">
        <path d="M9.78278998,6.66798146 C9.9859145,6.78647089 10.0874768,6.96420484 10.0874768,7.20118332 C10.0874768,7.43816179 9.9859145,7.61589574 9.78278998,7.73438517 L5.31405063,10.2988322 C5.11092612,10.4173216 4.9078016,10.4173216 4.70467709,10.2988322 C4.50155257,10.1803428 4.39999031,10.0026088 4.39999031,9.76563033 L4.39999031,4.48439292 C4.39999031,4.24741445 4.50155257,4.06968049 4.70467709,3.95119106 C4.9078016,3.83270163 5.11092612,3.83270163 5.31405063,3.95119106 L9.78278998,6.66798146 Z M13.1343445,7.12501162 C13.1343445,8.25912363 12.8508164,9.30860017 12.2837606,10.2734416 C11.7167048,11.2382831 10.9507559,12.0042319 9.9859145,12.5712877 C9.02107305,13.1383435 7.97159651,13.4218716 6.8374845,13.4218716 C5.70337249,13.4218716 4.65389596,13.1383435 3.68905451,12.5712877 C2.72421306,12.0042319 1.95826424,11.2382831 1.39120843,10.2734416 C0.824152615,9.30860017 0.540624516,8.25912363 0.540624516,7.12501162 C0.540624516,5.99089961 0.824152615,4.94142308 1.39120843,3.97658163 C1.95826424,3.01174018 2.72421306,2.24579136 3.68905451,1.67873555 C4.65389596,1.11167973 5.70337249,0.828151636 6.8374845,0.828151636 C7.97159651,0.828151636 9.02107305,1.11167973 9.9859145,1.67873555 C10.9507559,2.24579136 11.7167048,3.01174018 12.2837606,3.97658163 C12.8508164,4.94142308 13.1343445,5.99089961 13.1343445,7.12501162 Z M1.75937161,7.12501162 C1.75937161,8.03907194 1.98788669,8.88542396 2.44491685,9.66406807 C2.90194701,10.4427122 3.51978395,11.0605491 4.29842806,11.5175793 C5.07707216,11.9746094 5.92342418,12.2031245 6.8374845,12.2031245 C7.75154482,12.2031245 8.59789684,11.9746094 9.37654095,11.5175793 C10.1551851,11.0605491 10.773022,10.4427122 11.2300522,9.66406807 C11.6870823,8.88542396 11.9155974,8.03907194 11.9155974,7.12501162 C11.9155974,6.2109513 11.6870823,5.36459928 11.2300522,4.58595518 C10.773022,3.80731107 10.1551851,3.18947413 9.37654095,2.73244397 C8.59789684,2.27541381 7.75154482,2.04689873 6.8374845,2.04689873 C5.92342418,2.04689873 5.07707216,2.27541381 4.29842806,2.73244397 C3.51978395,3.18947413 2.90194701,3.80731107 2.44491685,4.58595518 C1.98788669,5.36459928 1.75937161,6.2109513 1.75937161,7.12501162 Z" id="" fill="#A4619F"></path>
    </g>
</svg>