<svg xmlns="http://www.w3.org/2000/svg" viewBox="0 0 20 20" enable-background="new 0 0 20 20"><style type="text/css">.st0{fill:#7D8F94;}</style><path class="st0" d="M18.2 5.2c.8 1.5 1.3 3 1.3 4.8 0 1.7-.4 3.3-1.3 4.8-.8 1.5-2 2.6-3.5 3.5-1.5.8-3 1.3-4.8 1.3s-3.3-.4-4.8-1.3-2.6-2-3.5-3.5c-.8-1.5-1.3-3-1.3-4.8 0-1.7.4-3.3 1.3-4.8.8-1.5 2-2.6 3.5-3.5s3-1.3 4.8-1.3 3.3.4 4.8 1.3 2.7 2.1 3.5 3.5zm-3.4 2.4c0-.7-.2-1.4-.7-2-.5-.6-1-1.1-1.7-1.4-.7-.3-1.4-.5-2.1-.5-2 0-3.5.9-4.6 2.6-.2.2-.1.4.1.5l1.6 1.2.2.1c.1 0 .2 0 .3-.1.5-.6.8-1 1.1-1.2.3-.2.6-.3 1.1-.3.4 0 .7.1 1.1.3.3.2.5.5.5.7 0 .3-.1.6-.2.8-.2.2-.4.4-.8.6-.7.2-1.2.6-1.6 1.1s-.6 1-.6 1.6v.4c0 .1 0 .2.1.3.1.1.2.1.3.1h2.4c.1 0 .2 0 .3-.1.1-.1.1-.2.1-.3 0-.2.1-.4.3-.6.2-.3.4-.5.7-.6.3-.1.5-.3.6-.4.1-.1.3-.2.6-.4l.6-.6c.1-.2.2-.4.3-.7-.1-.4 0-.7 0-1.1zm-3.2 8.3v-2.4c0-.1 0-.2-.1-.3-.1-.1-.2-.1-.3-.1h-2.4c-.1 0-.2 0-.3.1-.1.1-.1.2-.1.3v2.4c0 .1 0 .2.1.3.1.1.2.1.3.1h2.4c.1 0 .2 0 .3-.1 0-.1.1-.1.1-.3z"/></svg>